<svg id="Layer_1" data-name="Layer 1" xmlns="http://www.w3.org/2000/svg" viewBox="0 0 261 275"><defs><style>.cls-1,.cls-2{stroke:#000;stroke-miterlimit:10;}.cls-2{fill:#fff;}</style></defs><title>Untitled-1</title><path class="cls-1" d="M858.5,445a66.5,66.5,0,1,1-131.35-14.81c-1-.18-1.95-.39-2.91-.61a58,58,0,1,1-101.4-49.08,109.47,109.47,0,0,1-24.34-69c0-1.86,0-3.71.14-5.54a0,0,0,0,1,0,0,110.25,110.25,0,0,1,5-27.65s0,0,0,0a57.52,57.52,0,0,1,92.25-17.7,70.5,70.5,0,0,1,121.21,33.23s0,0,0,.06a107.73,107.73,0,0,1,1.4,16v.07c0,.53,0,1.07,0,1.61a109.68,109.68,0,0,1-5.17,33.4h0a73.78,73.78,0,0,1-2.57,36.28A66.51,66.51,0,0,1,858.5,445Z" transform="translate(-598 -237)"/><path class="cls-1" d="M809.5,298c0,.61,0,1.22,0,1.82a107.73,107.73,0,0,0-1.4-16A70.89,70.89,0,0,1,809.5,298Z" transform="translate(-598 -237)"/><circle class="cls-2" cx="35.5" cy="75.5" r="21"/><circle class="cls-2" cx="164" cy="84" r="21.5"/><circle class="cls-1" cx="34" cy="83" r="7.5"/><circle class="cls-1" cx="169.5" cy="96.5" r="6"/></svg>